<?xml version="1.0" encoding="utf-8"?>
<svg width="25px" height="29px" viewBox="0 0 25 29" version="1.1" xmlns:xlink="http://www.w3.org/1999/xlink" xmlns="http://www.w3.org/2000/svg">
  <desc>Created with Lunacy</desc>
  <defs>
    <path d="M0 0L25 0L25 25L0 25L0 0Z" transform="translate(0 4)" id="path_1" />
    <path d="M2 0L3 0Q3.10251 0 3.20343 0.00932124Q3.30436 0.0186425 3.40287 0.037209Q3.50139 0.0557754 3.5967 0.0834357Q3.69201 0.111096 3.78333 0.147624Q3.87465 0.184153 3.96124 0.229252Q4.04783 0.27435 4.12898 0.327651Q4.21013 0.380953 4.28518 0.442021Q4.36023 0.50309 4.42857 0.571429Q4.49691 0.639767 4.55798 0.714818Q4.61905 0.789868 4.67235 0.871019Q4.72565 0.95217 4.77075 1.03876Q4.81585 1.12535 4.85238 1.21667Q4.8889 1.30799 4.91656 1.4033Q4.94422 1.49861 4.96279 1.59713Q4.98136 1.69564 4.99068 1.79657Q5 1.89749 5 2L5 7Q5 7.10251 4.99068 7.20343Q4.98136 7.30436 4.96279 7.40287Q4.94422 7.50139 4.91657 7.5967Q4.8889 7.69201 4.85238 7.78333Q4.81585 7.87465 4.77075 7.96124Q4.72565 8.04783 4.67235 8.12898Q4.61905 8.21013 4.55798 8.28518Q4.49691 8.36023 4.42857 8.42857Q4.36023 8.49691 4.28518 8.55798Q4.21013 8.61905 4.12898 8.67235Q4.04783 8.72565 3.96124 8.77075Q3.87465 8.81585 3.78333 8.85238Q3.69201 8.8889 3.5967 8.91656Q3.50139 8.94423 3.40287 8.96279Q3.30436 8.98136 3.20343 8.99068Q3.10251 9 3 9L2 9Q1.89749 9 1.79657 8.99068Q1.69564 8.98136 1.59713 8.96279Q1.49861 8.94423 1.4033 8.91656Q1.30799 8.8889 1.21667 8.85238Q1.12535 8.81585 1.03876 8.77075Q0.95217 8.72565 0.871019 8.67235Q0.789868 8.61905 0.714818 8.55798Q0.639767 8.49691 0.571429 8.42857Q0.50309 8.36023 0.442021 8.28518Q0.380953 8.21013 0.327651 8.12898Q0.27435 8.04783 0.229252 7.96124Q0.184153 7.87465 0.147624 7.78333Q0.111096 7.69201 0.0834357 7.5967Q0.0557754 7.50139 0.037209 7.40288Q0.0186425 7.30436 0.00932124 7.20343Q0 7.10251 0 7L0 2Q0 1.89749 0.00932124 1.79657Q0.0186425 1.69564 0.037209 1.59713Q0.0557754 1.49861 0.0834357 1.4033Q0.111096 1.30799 0.147624 1.21667Q0.184153 1.12535 0.229252 1.03876Q0.27435 0.95217 0.327651 0.871019Q0.380953 0.789868 0.442021 0.714818Q0.50309 0.639767 0.571429 0.571429Q0.639767 0.50309 0.714818 0.442021Q0.789868 0.380953 0.871019 0.327651Q0.95217 0.27435 1.03876 0.229252Q1.12535 0.184153 1.21667 0.147624Q1.30799 0.111096 1.4033 0.0834357Q1.49861 0.0557754 1.59713 0.037209Q1.69564 0.0186425 1.79657 0.00932124Q1.89749 0 2 0Z" transform="translate(5 0)" id="path_2" />
    <path d="M2 0L3 0Q3.10251 0 3.20343 0.00932124Q3.30436 0.0186425 3.40287 0.037209Q3.50139 0.0557754 3.5967 0.0834357Q3.69201 0.111096 3.78333 0.147624Q3.87465 0.184153 3.96124 0.229252Q4.04783 0.27435 4.12898 0.327651Q4.21013 0.380953 4.28518 0.442021Q4.36023 0.50309 4.42857 0.571429Q4.49691 0.639767 4.55798 0.714818Q4.61905 0.789868 4.67235 0.871019Q4.72565 0.95217 4.77075 1.03876Q4.81585 1.12535 4.85238 1.21667Q4.8889 1.30799 4.91656 1.4033Q4.94422 1.49861 4.96279 1.59713Q4.98136 1.69564 4.99068 1.79657Q5 1.89749 5 2L5 7Q5 7.10251 4.99068 7.20343Q4.98136 7.30436 4.96279 7.40287Q4.94422 7.50139 4.91657 7.5967Q4.8889 7.69201 4.85238 7.78333Q4.81585 7.87465 4.77075 7.96124Q4.72565 8.04783 4.67235 8.12898Q4.61905 8.21013 4.55798 8.28518Q4.49691 8.36023 4.42857 8.42857Q4.36023 8.49691 4.28518 8.55798Q4.21013 8.61905 4.12898 8.67235Q4.04783 8.72565 3.96124 8.77075Q3.87465 8.81585 3.78333 8.85238Q3.69201 8.8889 3.5967 8.91656Q3.50139 8.94423 3.40287 8.96279Q3.30436 8.98136 3.20343 8.99068Q3.10251 9 3 9L2 9Q1.89749 9 1.79657 8.99068Q1.69564 8.98136 1.59713 8.96279Q1.49861 8.94423 1.4033 8.91656Q1.30799 8.8889 1.21667 8.85238Q1.12535 8.81585 1.03876 8.77075Q0.95217 8.72565 0.871019 8.67235Q0.789868 8.61905 0.714818 8.55798Q0.639767 8.49691 0.571429 8.42857Q0.50309 8.36023 0.442021 8.28518Q0.380953 8.21013 0.327651 8.12898Q0.27435 8.04783 0.229252 7.96124Q0.184153 7.87465 0.147624 7.78333Q0.111096 7.69201 0.0834357 7.5967Q0.0557754 7.50139 0.037209 7.40288Q0.0186425 7.30436 0.00932124 7.20343Q0 7.10251 0 7L0 2Q0 1.89749 0.00932124 1.79657Q0.0186425 1.69564 0.037209 1.59713Q0.0557754 1.49861 0.0834357 1.4033Q0.111096 1.30799 0.147624 1.21667Q0.184153 1.12535 0.229252 1.03876Q0.27435 0.95217 0.327651 0.871019Q0.380953 0.789868 0.442021 0.714818Q0.50309 0.639767 0.571429 0.571429Q0.639767 0.50309 0.714818 0.442021Q0.789868 0.380953 0.871019 0.327651Q0.95217 0.27435 1.03876 0.229252Q1.12535 0.184153 1.21667 0.147624Q1.30799 0.111096 1.4033 0.0834357Q1.49861 0.0557754 1.59713 0.037209Q1.69564 0.0186425 1.79657 0.00932124Q1.89749 0 2 0Z" transform="translate(15 0)" id="path_3" />
    <clipPath id="clip_1">
      <use xlink:href="#path_1" />
    </clipPath>
    <clipPath id="clip_2">
      <use xlink:href="#path_2" />
    </clipPath>
    <clipPath id="clip_3">
      <use xlink:href="#path_3" />
    </clipPath>
  </defs>
  <g id="Calendar-Icon">
    <g id="Rectangle">
      <use stroke="none" fill="#FFFFFF" xlink:href="#path_1" />
      <g clip-path="url(#clip_1)">
        <use xlink:href="#path_1" fill="none" stroke="#B6B6B6" stroke-width="4" />
      </g>
    </g>
    <path d="M0 0L25 0L25 9L0 9L0 0Z" transform="translate(0 4)" id="Rectangle" fill="#B6B6B6" stroke="none" />
    <g id="Rectangle">
      <use stroke="none" fill="#B6B6B6" xlink:href="#path_2" />
      <g clip-path="url(#clip_2)">
        <use xlink:href="#path_2" fill="none" stroke="#FFFFFF" stroke-width="2" />
      </g>
    </g>
    <g id="Rectangle">
      <use stroke="none" fill="#B6B6B6" xlink:href="#path_3" />
      <g clip-path="url(#clip_3)">
        <use xlink:href="#path_3" fill="none" stroke="#FFFFFF" stroke-width="2" />
      </g>
    </g>
  </g>
</svg>