<?xml version="1.0" encoding="utf-8"?>
<svg width="1384px" height="78px" viewBox="0 0 1384 78" version="1.1" xmlns:xlink="http://www.w3.org/1999/xlink" xmlns="http://www.w3.org/2000/svg">
  <desc>Created with Lunacy</desc>
  <defs>
    <filter filterUnits="userSpaceOnUse" color-interpolation-filters="sRGB" id="filter_1">
      <feFlood flood-opacity="0" result="BackgroundImageFix" />
      <feColorMatrix in="SourceAlpha" type="matrix" values="0 0 0 0 0 0 0 0 0 0 0 0 0 0 0 0 0 0 127 0" />
      <feOffset dx="0" dy="2" />
      <feGaussianBlur stdDeviation="2.5" />
      <feColorMatrix type="matrix" values="0 0 0 0 0 0 0 0 0 0 0 0 0 0 0 0 0 0 0.254902 0" />
      <feBlend mode="normal" in2="BackgroundImageFix" result="effect0_dropShadow" />
      <feBlend mode="normal" in="SourceGraphic" in2="effect0_dropShadow" result="shape" />
    </filter>
    <path d="M15 30C23.2843 30 30 23.2843 30 15C30 6.71573 23.2843 0 15 0C6.71573 0 0 6.71573 0 15C0 23.2843 6.71573 30 15 30Z" id="path_1" />
    <clipPath id="clip_1">
      <use xlink:href="#path_1" />
    </clipPath>
  </defs>
  <g id="Header-(Claim-Department)" transform="translate(6 4)">
    <g filter="url(#filter_1)">
      <path d="M0 0L1366 0L1366 60L0 60L0 0Z" id="Header-BG" fill="#FFFFFF" stroke="none" />
    </g>
    <path d="M1 0L1 20" transform="translate(1244 20)" id="Line" fill="none" stroke="#B6B6B6" stroke-width="1" stroke-linecap="square" />
    <g id="Hamburger-Menu-Icon" transform="translate(25 20)">
      <path d="M0 0L25 0L25 4L0 4L0 0Z" id="Rectangle" fill="#003087" stroke="none" />
      <path d="M0 0L25 0L25 4L0 4L0 0Z" transform="translate(0 8)" id="Rectangle" fill="#003087" stroke="none" />
      <path d="M0 0L25 0L25 4L0 4L0 0Z" transform="translate(0 16)" id="Rectangle" fill="#003087" stroke="none" />
    </g>
    <g id="FIREFLY" transform="translate(80 20)">
      <g id="FIREFL" fill="#003087">
        <path d="M3.125 5.33984L7.79688 5.33984L7.79688 3.94922L1.5625 3.94922L1.5625 16.0508L3.125 16.0508L3.125 10.7617L7.45313 10.7617L7.45313 9.38672L3.125 9.38672L3.125 5.33984ZM16.765 16.0508L16.765 3.94922L15.2025 3.94922L15.2025 16.0508L16.765 16.0508ZM33.8816 16.0508L32.0378 16.0508L30.03 12.6914Q29.4284 11.6836 28.9284 11.3203Q28.4284 10.957 27.7331 10.957L26.6081 10.957L26.6081 16.0508L25.0456 16.0508L25.0456 3.94922L28.7331 3.94922Q30.4987 3.94922 31.4987 4.80078Q32.4987 5.65234 32.4987 7.18359Q32.4987 9.69922 29.8112 10.4492L29.8112 10.4883Q30.3112 10.6992 30.6745 11.0898Q31.0378 11.4805 31.6159 12.4258L33.8816 16.0508ZM40.6309 16.0508L47.1387 16.0508L47.1387 14.668L42.1934 14.668L42.1934 10.5977L46.5216 10.5977L46.5216 9.21484L42.1934 9.21484L42.1934 5.33984L46.8653 5.33984L46.8653 3.94922L40.6309 3.94922L40.6309 16.0508ZM60.8022 5.33984L56.1303 5.33984L56.1303 9.38672L60.4584 9.38672L60.4584 10.7617L56.1303 10.7617L56.1303 16.0508L54.5678 16.0508L54.5678 3.94922L60.8022 3.94922L60.8022 5.33984ZM68.2078 16.0508L74.5906 16.0508L74.5906 14.668L69.7703 14.668L69.7703 3.94922L68.2078 3.94922L68.2078 16.0508ZM26.6081 5.31641L26.6081 9.58984L28.4519 9.58984Q29.5222 9.58984 30.1902 8.96484Q30.8581 8.33984 30.8581 7.32422Q30.8581 6.37891 30.2487 5.84766Q29.6394 5.31641 28.4753 5.31641L26.6081 5.31641Z" />
      </g>
      <g id="Y" fill="#003087">
        <path d="M89.5666 3.94922L85.5822 11.5977L85.5822 16.0508L84.0119 16.0508L84.0119 11.6367L80.1291 3.94922L81.9181 3.94922L84.5353 9.30859Q84.5431 9.31641 84.8244 10.082L84.8478 10.082Q84.9416 9.75391 85.1681 9.31641L87.9025 3.94922L89.5666 3.94922Z" />
      </g>
    </g>
    <g id="Sign-Out-Icon" transform="translate(1265 22)">
      <path d="M8 16L0 16L0 0L0 0L8 0" id="Rectangle" fill="none" stroke="#0073CF" stroke-width="2" />
      <path d="M0 5.00044e-13L7 5.00044e-13L7 6L0 6L0 5.00044e-13Z" transform="translate(4 5)" id="Rectangle-2" fill="#0073CF" stroke="none" />
      <path d="M7 0L14 7L0 7L7 0Z" transform="matrix(-4.371139E-08 1 -1 -4.371139E-08 17.5 1)" id="Triangle" fill="#0073CF" stroke="none" />
    </g>
    <g id="Sign-out" fill="#0073CF" transform="translate(1285.902 21)">
      <path d="M8.86768 3.92017Q8.86768 3.59009 9.09302 3.36475Q9.31836 3.1394 9.64844 3.1394Q9.98486 3.1394 10.2166 3.36157Q10.4482 3.58374 10.4482 3.92017Q10.4482 4.25025 10.2166 4.46924Q9.98486 4.68823 9.64844 4.68823Q9.31201 4.68823 9.08984 4.46924Q8.86768 4.25024 8.86768 3.92017ZM0.8125 11.5691Q1.26318 11.9626 2.01855 12.2166Q2.77393 12.4705 3.45313 12.4705Q5.52246 12.4705 5.52246 10.9978Q5.52246 10.5852 5.30029 10.2551Q5.07812 9.92505 4.69092 9.67114Q4.30371 9.41724 3.2373 8.89038Q1.7583 8.15405 1.28857 7.52246Q0.818848 6.89087 0.818848 6.07837Q0.818848 4.85327 1.80273 4.13599Q2.78662 3.4187 4.28467 3.4187Q5.75098 3.4187 6.43652 3.77417L6.43652 5.15796Q5.54785 4.54224 4.18945 4.54224Q3.28809 4.54224 2.71997 4.91992Q2.15186 5.29761 2.15186 5.97046Q2.15186 6.56714 2.54541 6.94165Q2.93896 7.31616 4.25293 7.96362Q5.7002 8.65552 6.27783 9.34741Q6.85547 10.0393 6.85547 10.9026Q6.85547 12.1975 5.91602 12.8894Q4.97656 13.5813 3.30713 13.5813Q2.72314 13.5813 1.94556 13.4194Q1.16797 13.2576 0.8125 13.0164L0.8125 11.5691ZM53.2314 13.5686Q53.9233 13.5686 54.3296 13.3464L54.3296 12.3118Q54.0186 12.5466 53.5996 12.5466Q53.0537 12.5466 52.8188 12.2483Q52.584 11.95 52.584 11.2581L52.584 7.42407L54.3296 7.42407L54.3296 6.39575L52.584 6.39575L52.584 4.31372L51.3462 4.70728L51.3462 6.39575L50.1401 6.39575L50.1401 7.42407L51.3462 7.42407L51.3462 11.4802Q51.3462 13.5686 53.2314 13.5686ZM15.1963 16.7234Q18.9795 16.7234 18.9795 12.8259L18.9795 6.39575L17.7354 6.39575L17.7354 7.3479L17.71 7.3479Q17.0308 6.23071 15.6279 6.23071Q14.168 6.23071 13.292 7.28125Q12.416 8.33179 12.416 10.1282Q12.416 11.6897 13.2095 12.6355Q14.0029 13.5813 15.3232 13.5813Q16.9102 13.5813 17.71 12.2546L17.7354 12.2546L17.7354 12.9973Q17.7354 15.6887 15.1772 15.6887Q14.0981 15.6887 12.9238 15.0349L12.9238 16.2346Q13.8887 16.7234 15.1963 16.7234ZM27.5425 13.4163L26.3047 13.4163L26.3047 9.42358Q26.3047 7.25903 24.7241 7.25903Q23.9053 7.25903 23.3784 7.86841Q22.8516 8.47778 22.8516 9.41089L22.8516 13.4163L21.6074 13.4163L21.6074 6.39575L22.8516 6.39575L22.8516 7.55737L22.877 7.55737Q23.6704 6.23071 25.1812 6.23071Q26.3364 6.23071 26.9395 6.97021Q27.5425 7.70972 27.5425 9.12524L27.5425 13.4163ZM34.3726 7.23682Q33.4014 8.24292 33.4014 9.98218Q33.4014 11.6008 34.3408 12.5911Q35.2803 13.5813 36.8545 13.5813Q38.4668 13.5813 39.4253 12.5593Q40.3838 11.5374 40.3838 9.87427Q40.3838 8.16675 39.4856 7.19873Q38.5874 6.23071 37.0068 6.23071Q35.3438 6.23071 34.3726 7.23682ZM9.01367 13.4163L9.01367 6.39575L10.2578 6.39575L10.2578 13.4163L9.01367 13.4163ZM48.3374 13.4163L47.0869 13.4163L47.0869 12.3118L47.0615 12.3118Q46.3569 13.5813 44.897 13.5813Q42.4023 13.5813 42.4023 10.5979L42.4023 6.39575L43.6338 6.39575L43.6338 10.4138Q43.6338 12.553 45.2715 12.553Q46.084 12.553 46.5854 11.9531Q47.0869 11.3533 47.0869 10.4392L47.0869 6.39575L48.3374 6.39575L48.3374 13.4163ZM17.1895 7.84302Q17.7417 8.427 17.7354 9.2395L17.7354 10.217Q17.7417 11.2327 17.1641 11.8928Q16.5864 12.553 15.6787 12.553Q14.7773 12.553 14.2314 11.8611Q13.6855 11.1692 13.6855 10.052Q13.6855 8.75073 14.2505 8.00488Q14.8154 7.25903 15.8311 7.25903Q16.6372 7.25903 17.1895 7.84302ZM35.2834 11.8547Q34.6709 11.1565 34.6709 9.94409Q34.6709 8.6936 35.2771 7.97632Q35.8833 7.25903 36.9307 7.25903Q37.9971 7.25903 38.5557 7.94458Q39.1143 8.63013 39.1143 9.91235Q39.1143 11.1882 38.5557 11.8706Q37.9971 12.553 36.9307 12.553Q35.896 12.553 35.2834 11.8547Z" />
    </g>
    <g id="User-name" transform="translate(1079 15)">
      <g id="Person-Icon">
        <g id="Oval">
          <g clip-path="url(#clip_1)">
            <use xlink:href="#path_1" fill="none" stroke="#585858" stroke-width="4" />
          </g>
        </g>
        <path d="M5 10C7.76142 10 10 7.76142 10 5C10 2.23858 7.76142 0 5 0C2.23858 0 0 2.23858 0 5C0 7.76142 2.23858 10 5 10Z" transform="translate(10 5)" id="Oval" fill="#585858" stroke="none" />
        <path d="M10 12C15.5228 12 20 7.68627 20 2.36501C20 -2.95626 15.5228 2.36501 10 2.36501C4.47715 2.36501 0 -2.95626 0 2.36501C0 7.68627 4.47715 12 10 12Z" transform="translate(5 14)" id="Oval" fill="#585858" stroke="none" />
      </g>
      <g id="Jane-Appleseed" transform="translate(39 0)">
        <path d="M56.5547 12.0381L56.5547 2.44629L57.7031 2.44629L57.7031 12.0381L56.5547 12.0381ZM92.0859 12.0381L93.2344 12.0381L93.2344 2.44629L92.0859 2.44629L92.0859 6.43652L92.0625 6.43652Q91.4648 5.40527 90.1406 5.40527Q88.8164 5.40527 87.9961 6.375Q87.1758 7.34473 87.1758 8.9502Q87.1758 10.4385 87.9023 11.3145Q88.6289 12.1904 89.8594 12.1904Q91.3535 12.1904 92.0625 10.96L92.0859 10.96L92.0859 12.0381ZM3.65625 8.74512Q3.65625 10.3916 2.95898 11.291Q2.26172 12.1904 1.06055 12.1904Q0.503906 12.1904 0.140625 12.0264L0.140625 10.8838Q0.503906 11.1475 1.05469 11.1475Q2.48438 11.1475 2.48438 8.74512L2.48438 2.96191L3.65625 2.96191L3.65625 8.74512ZM37.6465 12.0381L38.9414 12.0381L35.4844 2.96191L34.2305 2.96191L30.7734 12.0381L32.0684 12.0381L32.9414 9.55371L36.7207 9.55371L37.6465 12.0381ZM34.9863 4.75488L36.3574 8.52832L33.3105 8.52832L34.6699 4.75488Q34.752 4.53223 34.8164 4.12207L34.8457 4.12207Q34.9219 4.57324 34.9863 4.75488ZM6.30469 6.00879Q7.27148 5.40527 8.53711 5.40527Q10.8809 5.40527 10.8809 7.86621L10.8809 12.0381L9.74414 12.0381L9.74414 11.0361L9.71484 11.0361Q9.04102 12.1904 7.72852 12.1904Q6.78516 12.1904 6.22852 11.6807Q5.67188 11.1709 5.67188 10.3037Q5.67188 8.4873 7.82227 8.18848L9.74414 7.91895Q9.74414 6.33106 8.43164 6.33105Q7.26563 6.33105 6.30469 7.11621L6.30469 6.00879ZM17.4961 12.0381L18.6387 12.0381L18.6387 8.07715Q18.6387 6.77051 18.082 6.08789Q17.5254 5.40527 16.459 5.40527Q15.0645 5.40527 14.332 6.62988L14.3086 6.62988L14.3086 5.55762L13.1602 5.55762L13.1602 12.0381L14.3086 12.0381L14.3086 8.34082Q14.3086 7.47949 14.7949 6.91699Q15.2813 6.35449 16.0371 6.35449Q17.4961 6.35449 17.4961 8.35254L17.4961 12.0381ZM26.209 9.09082L21.6738 9.09082Q21.7031 10.1279 22.2422 10.6934Q22.7813 11.2588 23.748 11.2588Q24.8379 11.2588 25.7461 10.5615L25.7461 11.5869Q24.8906 12.1904 23.4785 12.1904Q22.0723 12.1904 21.2842 11.2998Q20.4961 10.4092 20.4961 8.82715Q20.4961 7.33887 21.3604 6.37207Q22.2246 5.40527 23.5078 5.40527Q24.7793 5.40527 25.4941 6.22266Q26.209 7.04004 26.209 8.51074L26.209 9.09082ZM41.6309 11.124L41.6309 15.0205L40.4824 15.0205L40.4824 5.55762L41.6309 5.55762L41.6309 6.67676L41.6543 6.67676Q42.416 5.40527 43.8809 5.40527Q45.123 5.40527 45.8291 6.27539Q46.5352 7.14551 46.5352 8.61035Q46.5352 10.2275 45.7354 11.209Q44.9355 12.1904 43.582 12.1904Q42.334 12.1904 41.6543 11.124L41.6309 11.124ZM49.6699 15.0205L49.6699 11.124L49.6934 11.124Q50.373 12.1904 51.6211 12.1904Q52.9746 12.1904 53.7744 11.209Q54.5742 10.2275 54.5742 8.61035Q54.5742 7.14551 53.8682 6.27539Q53.1621 5.40527 51.9199 5.40527Q50.4551 5.40527 49.6934 6.67676L49.6699 6.67676L49.6699 5.55762L48.5215 5.55762L48.5215 15.0205L49.6699 15.0205ZM60.873 9.09082L65.4082 9.09082L65.4082 8.51074Q65.4082 7.04004 64.6934 6.22266Q63.9785 5.40527 62.707 5.40527Q61.4238 5.40527 60.5596 6.37207Q59.6953 7.33887 59.6953 8.82715Q59.6953 10.4092 60.4834 11.2998Q61.2715 12.1904 62.6777 12.1904Q64.0898 12.1904 64.9453 11.5869L64.9453 10.5615Q64.0371 11.2588 62.9473 11.2588Q61.9805 11.2588 61.4414 10.6934Q60.9023 10.1279 60.873 9.09082ZM66.9492 10.6377Q67.8164 11.2646 68.8184 11.2646Q70.1602 11.2646 70.1602 10.3857Q70.1602 10.0107 69.8672 9.76758Q69.5742 9.52441 68.6777 9.19043Q67.5996 8.75684 67.2773 8.33203Q66.9551 7.90723 66.9551 7.30371Q66.9551 6.44238 67.6846 5.92383Q68.4141 5.40527 69.4805 5.40527Q70.3066 5.40527 71.0156 5.69238L71.0156 6.7998Q70.2891 6.33105 69.3691 6.33105Q68.8184 6.33105 68.4727 6.57129Q68.127 6.81152 68.127 7.2041Q68.127 7.59082 68.376 7.80762Q68.625 8.02441 69.4805 8.36426Q70.5645 8.76855 70.9453 9.20215Q71.3262 9.63574 71.3262 10.2744Q71.3262 11.165 70.5967 11.6777Q69.8672 12.1904 68.707 12.1904Q67.6992 12.1904 66.9492 11.8096L66.9492 10.6377ZM73.9863 9.09082L78.5215 9.09082L78.5215 8.51074Q78.5215 7.04004 77.8066 6.22266Q77.0918 5.40527 75.8203 5.40527Q74.5371 5.40527 73.6729 6.37207Q72.8086 7.33887 72.8086 8.82715Q72.8086 10.4092 73.5967 11.2998Q74.3848 12.1904 75.791 12.1904Q77.2031 12.1904 78.0586 11.5869L78.0586 10.5615Q77.1504 11.2588 76.0605 11.2588Q75.0938 11.2588 74.5547 10.6934Q74.0156 10.1279 73.9863 9.09082ZM85.7051 9.09082L81.1699 9.09082Q81.1992 10.1279 81.7383 10.6934Q82.2773 11.2588 83.2441 11.2588Q84.334 11.2588 85.2422 10.5615L85.2422 11.5869Q84.3867 12.1904 82.9746 12.1904Q81.5684 12.1904 80.7803 11.2998Q79.9922 10.4092 79.9922 8.82715Q79.9922 7.33887 80.8564 6.37207Q81.7207 5.40527 83.0039 5.40527Q84.2754 5.40527 84.9902 6.22266Q85.7051 7.04004 85.7051 8.51074L85.7051 9.09082ZM25.0605 8.1709Q25.0547 7.29199 24.6445 6.81152Q24.2344 6.33106 23.4902 6.33105Q22.8047 6.33105 22.3037 6.84082Q21.8027 7.35059 21.6738 8.1709L25.0605 8.1709ZM63.8438 6.81152Q64.2539 7.29199 64.2598 8.1709L60.873 8.1709Q61.002 7.35059 61.5029 6.84082Q62.0039 6.33105 62.6895 6.33105Q63.4336 6.33106 63.8438 6.81152ZM76.957 6.81152Q77.3672 7.29199 77.373 8.1709L73.9863 8.1709Q74.1152 7.35059 74.6162 6.84082Q75.1172 6.33105 75.8027 6.33105Q76.5469 6.33106 76.957 6.81152ZM84.5566 8.1709Q84.5508 7.29199 84.1406 6.81152Q83.7305 6.33106 82.9863 6.33105Q82.3008 6.33105 81.7998 6.84082Q81.2988 7.35059 81.1699 8.1709L84.5566 8.1709ZM41.625 9.36621Q41.625 10.1572 42.1348 10.6992Q42.6445 11.2412 43.4121 11.2412Q44.3262 11.2412 44.8418 10.5381Q45.3574 9.83496 45.3574 8.59277Q45.3574 7.54395 44.877 6.94922Q44.3965 6.35449 43.5645 6.35449Q42.7148 6.35449 42.1699 6.95801Q41.625 7.56152 41.625 8.50488L41.625 9.36621ZM50.1738 10.6992Q49.6641 10.1572 49.6641 9.36621L49.6641 8.50488Q49.6641 7.56152 50.209 6.95801Q50.7539 6.35449 51.6035 6.35449Q52.4355 6.35449 52.916 6.94922Q53.3965 7.54395 53.3965 8.59277Q53.3965 9.83496 52.8809 10.5381Q52.3652 11.2412 51.4512 11.2412Q50.6836 11.2412 50.1738 10.6992ZM91.5791 6.87891Q92.0918 7.40332 92.0918 8.18262L92.0918 9.08496Q92.0918 10.0049 91.5645 10.623Q91.0371 11.2412 90.2051 11.2412Q89.3613 11.2412 88.8545 10.6113Q88.3477 9.98145 88.3477 8.89746Q88.3477 7.71973 88.875 7.03711Q89.4023 6.35449 90.3164 6.35449Q91.0664 6.35449 91.5791 6.87891ZM8.22656 8.99121Q7.42969 9.09668 7.12793 9.38965Q6.82617 9.68262 6.82617 10.21Q6.82617 10.6729 7.1543 10.9658Q7.48242 11.2588 8.02148 11.2588Q8.77148 11.2588 9.25781 10.7314Q9.74414 10.2041 9.74414 9.40723L9.74414 8.78613L8.22656 8.99121Z" />
      </g>
      <g id="Claim-Department" fill="#585858" transform="translate(39 18)">
        <path d="M9.42188 12.0381L9.42188 2.44629L10.5703 2.44629L10.5703 12.0381L9.42188 12.0381ZM19.8633 3.27246Q19.8633 2.96778 20.0713 2.75977Q20.2793 2.55176 20.584 2.55176Q20.8945 2.55176 21.1084 2.75684Q21.3223 2.96191 21.3223 3.27246Q21.3223 3.57715 21.1084 3.7793Q20.8945 3.98145 20.584 3.98145Q20.2734 3.98145 20.0684 3.7793Q19.8633 3.57715 19.8633 3.27246ZM7.38281 11.6631Q6.38086 12.1904 4.86914 12.1904Q2.91797 12.1904 1.75195 10.9512Q0.585938 9.71191 0.585938 7.67285Q0.585938 5.48145 1.89844 4.14551Q3.21094 2.80957 5.23242 2.80957Q6.5332 2.80957 7.38281 3.17871L7.38281 4.40332Q6.41016 3.86426 5.24414 3.86426Q3.72656 3.86426 2.77148 4.875Q1.81641 5.88574 1.81641 7.60254Q1.81641 9.23145 2.70703 10.1895Q3.59766 11.1475 5.03906 11.1475Q6.38672 11.1475 7.38281 10.5381L7.38281 11.6631ZM38.8887 12.0381L38.8887 2.96191L41.4785 2.96191Q43.541 2.96191 44.9092 4.16309Q46.2773 5.36426 46.2773 7.38574Q46.2773 9.49512 44.9092 10.7666Q43.541 12.0381 41.3848 12.0381L38.8887 12.0381ZM77.543 12.1787Q78.1816 12.1787 78.5566 11.9736L78.5566 11.0186Q78.2695 11.2354 77.8828 11.2354Q77.3789 11.2354 77.1621 10.96Q76.9453 10.6846 76.9453 10.0459L76.9453 6.50684L78.5566 6.50684L78.5566 5.55762L76.9453 5.55762L76.9453 3.63574L75.8027 3.99902L75.8027 5.55762L74.6895 5.55762L74.6895 6.50684L75.8027 6.50684L75.8027 10.251Q75.8027 12.1787 77.543 12.1787ZM108.961 12.1787Q109.6 12.1787 109.975 11.9736L109.975 11.0186Q109.688 11.2354 109.301 11.2354Q108.797 11.2354 108.58 10.96Q108.363 10.6846 108.363 10.0459L108.363 6.50684L109.975 6.50684L109.975 5.55762L108.363 5.55762L108.363 3.63574L107.221 3.99902L107.221 5.55762L106.107 5.55762L106.107 6.50684L107.221 6.50684L107.221 10.251Q107.221 12.1787 108.961 12.1787ZM40.0605 4.00488L40.0605 11.001L41.3789 11.001Q43.1074 11.001 44.0771 10.0576Q45.0469 9.11426 45.0469 7.41504Q45.0469 5.71582 44.0508 4.86035Q43.0547 4.00488 41.4316 4.00488L40.0605 4.00488ZM15.3809 5.40527Q14.1152 5.40527 13.1484 6.00879L13.1484 7.11621Q14.1094 6.33105 15.2754 6.33105Q16.5879 6.33106 16.5879 7.91895L14.666 8.18848Q12.5156 8.4873 12.5156 10.3037Q12.5156 11.1709 13.0723 11.6807Q13.6289 12.1904 14.5723 12.1904Q15.8848 12.1904 16.5586 11.0361L16.5879 11.0361L16.5879 12.0381L17.7246 12.0381L17.7246 7.86621Q17.7246 5.40527 15.3809 5.40527ZM31.752 12.0381L32.9004 12.0381L32.9004 8.04199Q32.9004 5.40527 30.7617 5.40527Q29.3262 5.40527 28.6055 6.72949Q28.4121 6.12012 27.9141 5.7627Q27.416 5.40527 26.7656 5.40527Q25.4355 5.40527 24.7441 6.58301L24.7207 6.58301L24.7207 5.55762L23.5723 5.55762L23.5723 12.0381L24.7207 12.0381L24.7207 8.35254Q24.7207 7.47949 25.1514 6.91699Q25.582 6.35449 26.2383 6.35449Q27.6621 6.35449 27.6621 8.2002L27.6621 12.0381L28.8105 12.0381L28.8105 8.34668Q28.8105 7.53809 29.2617 6.94629Q29.7129 6.35449 30.3457 6.35449Q31.0957 6.35449 31.4238 6.80859Q31.752 7.2627 31.752 8.31738L31.752 12.0381ZM49.002 9.09082L53.5371 9.09082L53.5371 8.51074Q53.5371 7.04004 52.8223 6.22266Q52.1074 5.40527 50.8359 5.40527Q49.5527 5.40527 48.6885 6.37207Q47.8242 7.33887 47.8242 8.82715Q47.8242 10.4092 48.6123 11.2998Q49.4004 12.1904 50.8066 12.1904Q52.2188 12.1904 53.0742 11.5869L53.0742 10.5615Q52.166 11.2588 51.0762 11.2588Q50.1094 11.2588 49.5703 10.6934Q49.0313 10.1279 49.002 9.09082ZM56.5898 11.124L56.5898 15.0205L55.4414 15.0205L55.4414 5.55762L56.5898 5.55762L56.5898 6.67676L56.6133 6.67676Q57.375 5.40527 58.8398 5.40527Q60.082 5.40527 60.7881 6.27539Q61.4941 7.14551 61.4941 8.61035Q61.4941 10.2275 60.6943 11.209Q59.8945 12.1904 58.541 12.1904Q57.293 12.1904 56.6133 11.124L56.5898 11.124ZM65.8652 5.40527Q64.5996 5.40527 63.6328 6.00879L63.6328 7.11621Q64.5938 6.33105 65.7598 6.33105Q67.0723 6.33106 67.0723 7.91895L65.1504 8.18848Q63 8.4873 63 10.3037Q63 11.1709 63.5566 11.6807Q64.1133 12.1904 65.0566 12.1904Q66.3691 12.1904 67.043 11.0361L67.0723 11.0361L67.0723 12.0381L68.209 12.0381L68.209 7.86621Q68.209 5.40527 65.8652 5.40527ZM89.6191 12.0381L88.4707 12.0381L88.4707 8.31738Q88.4707 7.2627 88.1426 6.80859Q87.8145 6.35449 87.0645 6.35449Q86.4316 6.35449 85.9805 6.94629Q85.5293 7.53809 85.5293 8.34668L85.5293 12.0381L84.3809 12.0381L84.3809 8.2002Q84.3809 6.35449 82.957 6.35449Q82.3008 6.35449 81.8701 6.91699Q81.4395 7.47949 81.4395 8.35254L81.4395 12.0381L80.291 12.0381L80.291 5.55762L81.4395 5.55762L81.4395 6.58301L81.4629 6.58301Q82.1543 5.40527 83.4844 5.40527Q84.1348 5.40527 84.6328 5.7627Q85.1309 6.12012 85.3242 6.72949Q86.0449 5.40527 87.4805 5.40527Q89.6191 5.40527 89.6191 8.04199L89.6191 12.0381ZM92.6543 9.09082L97.1895 9.09082L97.1895 8.51074Q97.1895 7.04004 96.4746 6.22266Q95.7598 5.40527 94.4883 5.40527Q93.2051 5.40527 92.3408 6.37207Q91.4766 7.33887 91.4766 8.82715Q91.4766 10.4092 92.2646 11.2998Q93.0527 12.1904 94.459 12.1904Q95.8711 12.1904 96.7266 11.5869L96.7266 10.5615Q95.8184 11.2588 94.7285 11.2588Q93.7617 11.2588 93.2227 10.6934Q92.6836 10.1279 92.6543 9.09082ZM104.572 12.0381L103.43 12.0381L103.43 8.35254Q103.43 6.35449 101.971 6.35449Q101.215 6.35449 100.729 6.91699Q100.242 7.47949 100.242 8.34082L100.242 12.0381L99.0938 12.0381L99.0938 5.55762L100.242 5.55762L100.242 6.62988L100.266 6.62988Q100.998 5.40527 102.393 5.40527Q103.459 5.40527 104.016 6.08789Q104.572 6.77051 104.572 8.07715L104.572 12.0381ZM73.9629 6.69434Q73.6758 6.48926 73.1719 6.48926Q72.5039 6.48926 72.0703 7.11328Q71.6367 7.7373 71.6367 8.75684L71.6367 12.0381L70.4883 12.0381L70.4883 5.55762L71.6367 5.55762L71.6367 6.87598L71.6602 6.87598Q72.1523 5.44629 73.3594 5.44629Q73.752 5.44629 73.9629 5.53418L73.9629 6.69434ZM19.998 12.0381L19.998 5.55762L21.1465 5.55762L21.1465 12.0381L19.998 12.0381ZM51.9727 6.81152Q52.3828 7.29199 52.3887 8.1709L49.002 8.1709Q49.1309 7.35059 49.6318 6.84082Q50.1328 6.33105 50.8184 6.33105Q51.5625 6.33106 51.9727 6.81152ZM95.625 6.81152Q96.0352 7.29199 96.041 8.1709L92.6543 8.1709Q92.7832 7.35059 93.2842 6.84082Q93.7852 6.33105 94.4707 6.33105Q95.2148 6.33106 95.625 6.81152ZM56.584 9.36621Q56.584 10.1572 57.0938 10.6992Q57.6035 11.2412 58.3711 11.2412Q59.2852 11.2412 59.8008 10.5381Q60.3164 9.83496 60.3164 8.59277Q60.3164 7.54395 59.8359 6.94922Q59.3555 6.35449 58.5234 6.35449Q57.6738 6.35449 57.1289 6.95801Q56.584 7.56152 56.584 8.50488L56.584 9.36621ZM13.9717 9.38965Q14.2734 9.09668 15.0703 8.99121L16.5879 8.78613L16.5879 9.40723Q16.5879 10.2041 16.1016 10.7314Q15.6152 11.2588 14.8652 11.2588Q14.3262 11.2588 13.998 10.9658Q13.6699 10.6729 13.6699 10.21Q13.6699 9.68262 13.9717 9.38965ZM64.4561 9.38965Q64.7578 9.09668 65.5547 8.99121L67.0723 8.78613L67.0723 9.40723Q67.0723 10.2041 66.5859 10.7314Q66.0996 11.2588 65.3496 11.2588Q64.8105 11.2588 64.4824 10.9658Q64.1543 10.6729 64.1543 10.21Q64.1543 9.68262 64.4561 9.38965Z" />
      </g>
    </g>
  </g>
</svg>