<svg viewBox="-500,-250,1000,500">
    <g stroke="white">
        <path fill="rgb(66, 136, 181)" d="M1.5246852649384548e-14,-249A249,249,0,0,1,95.88074542215782,-229.79965765268528L38.50632346271398,-92.28901913762462A100,100,0,0,0,6.123233995736766e-15,-100Z">
            <title>&lt;5: 19,912,018</title>
        </path>
        <path fill="rgb(77, 163, 177)" d="M95.88074542215782,-229.79965765268528A249,249,0,0,1,179.01399133944247,-173.0751019202994L71.8931692126275,-69.50807306036121A100,100,0,0,0,38.50632346271398,-92.28901913762462Z">
            <title>5-9: 20,501,982</title>
        </path>
        <path fill="rgb(101, 186, 170)" d="M179.01399133944247,-173.0751019202994A249,249,0,0,1,233.21198638663319,-87.25347789974232L93.65943228378842,-35.041557389454745A100,100,0,0,0,71.8931692126275,-69.50807306036121Z">
            <title>10-14: 20,679,786</title>
        </path>
        <path fill="rgb(131, 204, 165)" d="M233.21198638663319,-87.25347789974232A249,249,0,0,1,248.45957964392133,16.396258206246568L99.78296371241821,6.584842653111071A100,100,0,0,0,93.65943228378842,-35.041557389454745Z">
            <title>15-19: 21,354,481</title>
        </path>
        <path fill="rgb(162, 217, 163)" d="M248.45957964392133,16.396258206246568A249,249,0,0,1,216.74996926505548,122.55794883889624L87.04818042773313,49.22005977465712A100,100,0,0,0,99.78296371241821,6.584842653111071Z">
            <title>20-24: 22,604,232</title>
        </path>
        <path fill="rgb(191, 229, 160)" d="M216.74996926505548,122.55794883889624A249,249,0,0,1,145.78008037425442,201.86423201269687L58.54621701777286,81.0699726958622A100,100,0,0,0,87.04818042773313,49.22005977465712Z">
            <title>25-29: 21,698,010</title>
        </path>
        <path fill="rgb(216, 239, 159)" d="M145.78008037425442,201.86423201269687A249,249,0,0,1,50.671293471822054,243.7897044952729L20.34991705695665,97.90751184549113A100,100,0,0,0,58.54621701777286,81.0699726958622Z">
            <title>30-34: 21,183,639</title>
        </path>
        <path fill="rgb(235, 247, 166)" d="M50.671293471822054,243.7897044952729A249,249,0,0,1,-46.837432734658655,244.55521849845348L-18.81021394966211,98.21494718813393A100,100,0,0,0,20.34991705695665,97.90751184549113Z">
            <title>35-39: 19,855,782</title>
        </path>
        <path fill="rgb(247, 250, 175)" d="M-46.837432734658655,244.55521849845348A249,249,0,0,1,-141.01827960675814,205.219016703497L-56.63384723162977,82.41727578453694A100,100,0,0,0,-18.81021394966211,98.21494718813393Z">
            <title>40-44: 20,796,128</title>
        </path>
        <path fill="rgb(253, 245, 172)" d="M-141.01827960675814,205.219016703497A249,249,0,0,1,-212.98944442836512,128.98254363322334L-85.53792948930327,51.80021832659571A100,100,0,0,0,-56.63384723162977,82.41727578453694Z">
            <title>45-49: 21,370,368</title>
        </path>
        <path fill="rgb(254, 232, 154)" d="M-212.98944442836512,128.98254363322334A249,249,0,0,1,-247.82087392212722,24.203604038926336L-99.52645539041254,9.720322907199332A100,100,0,0,0,-85.53792948930327,51.80021832659571Z">
            <title>50-54: 22,525,490</title>
        </path>
        <path fill="rgb(254, 213, 133)" d="M-247.82087392212722,24.203604038926336A249,249,0,0,1,-236.39439465598343,-78.22205683329446L-94.93750789396925,-31.414480655941553A100,100,0,0,0,-99.52645539041254,9.720322907199332Z">
            <title>55-59: 21,001,947</title>
        </path>
        <path fill="rgb(253, 191, 112)" d="M-236.39439465598343,-78.22205683329446A249,249,0,0,1,-192.81016688734798,-157.5602727367309L-77.43380196279035,-63.277217966558595A100,100,0,0,0,-94.93750789396925,-31.414480655941553Z">
            <title>60-64: 18,415,681</title>
        </path>
        <path fill="rgb(251, 165, 95)" d="M-192.81016688734798,-157.5602727367309A249,249,0,0,1,-139.95509805141782,-205.9455523419188L-56.20686668731639,-82.70905716542924A100,100,0,0,0,-77.43380196279035,-63.277217966558595Z">
            <title>65-69: 14,547,446</title>
        </path>
        <path fill="rgb(247, 136, 81)" d="M-139.95509805141782,-205.9455523419188A249,249,0,0,1,-93.90788909139039,-230.61289722476303L-37.714011683289314,-92.61562137540685A100,100,0,0,0,-56.20686668731639,-82.70905716542924Z">
            <title>70-74: 10,587,721</title>
        </path>
        <path fill="rgb(239, 109, 74)" d="M-93.90788909139039,-230.61289722476303A249,249,0,0,1,-57.555140779475884,-242.2569003555001L-23.11451436926742,-97.2919278536145A100,100,0,0,0,-37.714011683289314,-92.61562137540685Z">
            <title>75-79: 7,730,129</title>
        </path>
        <path fill="rgb(227, 84, 73)" d="M-57.555140779475884,-242.2569003555001A249,249,0,0,1,-29.28691463379532,-247.2716656457686L-11.761813105941895,-99.30588981757775A100,100,0,0,0,-23.11451436926742,-97.2919278536145Z">
            <title>80-84: 5,811,429</title>
        </path>
        <path fill="rgb(209, 60, 75)" d="M-29.28691463379532,-247.2716656457686A249,249,0,0,1,-4.574055794815364e-14,-249L-1.8369701987210297e-14,-100A100,100,0,0,0,-11.761813105941895,-99.30588981757775Z">
            <title>≥85: 5,938,752</title>
        </path>
    </g>
    <g font-family="sans-serif" font-size="12" text-anchor="middle">
        <text transform="translate(39.270805600026556,-196.106613421182)">
            <tspan y="-0.4em" font-weight="bold">&lt;5</tspan>
            <tspan x="0" y="0.7em" fill-opacity="0.7">19,912,018</tspan>
        </text>
        <text transform="translate(112.72541633166833,-165.20587311851853)">
            <tspan y="-0.4em" font-weight="bold">5-9</tspan>
            <tspan x="0" y="0.7em" fill-opacity="0.7">20,501,982</tspan>
        </text>
        <text transform="translate(169.10234937671308,-106.79136404820413)">
            <tspan y="-0.4em" font-weight="bold">10-14</tspan>
            <tspan x="0" y="0.7em" fill-opacity="0.7">20,679,786</tspan>
        </text>
        <text transform="translate(197.87045698955907,-29.108113142954767)">
            <tspan y="-0.4em" font-weight="bold">15-19</tspan>
            <tspan x="0" y="0.7em" fill-opacity="0.7">21,354,481</tspan>
        </text>
        <text transform="translate(191.6341257702275,57.23951292840134)">
            <tspan y="-0.4em" font-weight="bold">20-24</tspan>
            <tspan x="0" y="0.7em" fill-opacity="0.7">22,604,232</tspan>
        </text>
        <text transform="translate(149.0373963829492,133.37111561125852)">
            <tspan y="-0.4em" font-weight="bold">25-29</tspan>
            <tspan x="0" y="0.7em" fill-opacity="0.7">21,698,010</tspan>
        </text>
        <text transform="translate(80.67281262329324,183.0079159584279)">
            <tspan y="-0.4em" font-weight="bold">30-34</tspan>
            <tspan x="0" y="0.7em" fill-opacity="0.7">21,183,639</tspan>
        </text>
        <text transform="translate(1.570096222694124,199.9938368996692)">
            <tspan y="-0.4em" font-weight="bold">35-39</tspan>
            <tspan x="0" y="0.7em" fill-opacity="0.7">19,855,782</tspan>
        </text>
        <text transform="translate(-77.08030091600922,184.5497960191164)">
            <tspan y="-0.4em" font-weight="bold">40-44</tspan>
            <tspan x="0" y="0.7em" fill-opacity="0.7">20,796,128</tspan>
        </text>
        <text transform="translate(-145.4311462629987,137.29450716117626)">
            <tspan y="-0.4em" font-weight="bold">45-49</tspan>
            <tspan x="0" y="0.7em" fill-opacity="0.7">21,370,368</tspan>
        </text>
        <text transform="translate(-189.7881559776977,63.090853937675405)">
            <tspan y="-0.4em" font-weight="bold">50-54</tspan>
            <tspan x="0" y="0.7em" fill-opacity="0.7">22,525,490</tspan>
        </text>
        <text transform="translate(-198.76696174275938,-22.174194902012232)">
            <tspan y="-0.4em" font-weight="bold">55-59</tspan>
            <tspan x="0" y="0.7em" fill-opacity="0.7">21,001,947</tspan>
        </text>
        <text transform="translate(-175.29147865957546,-96.29588521499555)">
            <tspan y="-0.4em" font-weight="bold">60-64</tspan>
            <tspan x="0" y="0.7em" fill-opacity="0.7">18,415,681</tspan>
        </text>
        <text transform="translate(-135.04600953711446,-147.52144016413885)">
            <tspan y="-0.4em" font-weight="bold">65-69</tspan>
            <tspan x="0" y="0.7em" fill-opacity="0.7">14,547,446</tspan>
        </text>
        <text transform="translate(-94.44189434966101,-176.2972733528442)">
            <tspan y="-0.4em" font-weight="bold">70-74</tspan>
        </text>
        <text transform="translate(-61.0080111461167,-190.4679043198494)">
            <tspan y="-0.4em" font-weight="bold">75-79</tspan>
        </text>
        <text transform="translate(-34.93442801807875,-196.92533036420093)">
            <tspan y="-0.4em" font-weight="bold">80-84</tspan>
        </text>
        <text transform="translate(-11.782276371077415,-199.65264326703905)">
            <tspan y="-0.4em" font-weight="bold">≥85</tspan>
        </text>
    </g>
</svg>